<svg xmlns="http://www.w3.org/2000/svg" width="83" height="24" viewBox="0 0 83 24">
  <path d="M28.3,24.673l1.947-10.326H27l0.392-2.114h9.86l-0.393,2.114H33.608L31.661,24.673H28.3ZM38.2,12.232h5A3.179,3.179,0,0,1,46.715,15.4a4.069,4.069,0,0,1-2.644,3.75l1.911,5.3-3.59.409-1.3-4.888H40.124l-0.892,4.71H35.855Zm2.286,5.616H41.5a2,2,0,0,0,1.858-2.026,1.462,1.462,0,0,0-1.321-1.476H41.16ZM55.7,12.232l1.947,12.44H54.3L53.983,21.7H50.66l-1.625,2.968H46.2l6.93-12.44H55.7Zm-1.893,7.5c-0.126-1.227-.25-2.47-0.286-4.124H53.483c-0.661,1.654-1.25,2.9-1.858,4.124H53.8Zm15.307,4.94H66.629a75.187,75.187,0,0,1-3.643-7.606H62.95l-1.393,7.606H58.663L61,12.232h2.679a68.669,68.669,0,0,1,3.448,7.322h0.035l1.394-7.322h2.893Zm9.84-10.166a3.341,3.341,0,0,0-1.5-.374,1.322,1.322,0,0,0-1.357,1.192c0,0.586.375,1.262,1.357,2.523a5.567,5.567,0,0,1,1.394,3.2c0,2.416-2,3.839-4.537,3.839a5.694,5.694,0,0,1-3.679-1.208l1.179-1.671a3.744,3.744,0,0,0,2,.675,1.637,1.637,0,0,0,1.643-1.6c0-.818-0.643-1.564-1.5-2.737C73.057,17.1,72.7,16.462,72.7,15.5c0-2.1,1.965-3.484,4.393-3.484a4.861,4.861,0,0,1,2.965.889Zm9.433-.16H84.937l-0.662,3.519h3.36L87.26,19.981H83.882l-0.893,4.692H79.631l2.34-12.44h6.808Zm1.822-2.114h3.358L91.619,22.557h4.144L95.37,24.673h-7.5Zm6.11,7.287c0-3.519,2.339-7.5,6.645-7.5,3.269,0,4.751,3.057,4.751,5.58,0,4.105-3.072,7.287-6.395,7.287C97.818,24.886,96.317,22.15,96.317,19.519Zm7.931-2.382c0-.782-0.269-2.524-1.715-2.524-1.037,0-2.751,1.1-2.751,4.976,0,0.747.2,2.7,1.858,2.7C103.051,22.291,104.248,20.123,104.248,17.137Zm3.191-3.8a1.4,1.4,0,0,1,.046-0.364,1.34,1.34,0,0,1,.129-0.322,1.281,1.281,0,0,1,.2-0.27,1.257,1.257,0,0,1,.26-0.207,1.276,1.276,0,0,1,.306-0.132,1.261,1.261,0,0,1,.68,0,1.276,1.276,0,0,1,.306.132,1.306,1.306,0,0,1,.259.207,1.281,1.281,0,0,1,.2.27,1.427,1.427,0,0,1,.129.322,1.461,1.461,0,0,1,0,.727,1.445,1.445,0,0,1-.129.323,1.276,1.276,0,0,1-.2.271,1.36,1.36,0,0,1-.259.208,1.242,1.242,0,0,1-1.292,0,1.307,1.307,0,0,1-.26-0.208,1.276,1.276,0,0,1-.2-0.271,1.356,1.356,0,0,1-.129-0.323A1.4,1.4,0,0,1,107.439,13.342Zm0.207,0a1.162,1.162,0,0,0,.315.807,1.069,1.069,0,0,0,.341.24,1.044,1.044,0,0,0,.835,0,1.069,1.069,0,0,0,.341-0.24,1.1,1.1,0,0,0,.23-0.359,1.176,1.176,0,0,0,.084-0.447,1.164,1.164,0,0,0-.084-0.444,1.093,1.093,0,0,0-.23-0.357,1.064,1.064,0,0,0-.341-0.238,1.054,1.054,0,0,0-.835,0,1.064,1.064,0,0,0-.341.238A1.153,1.153,0,0,0,107.646,13.342Zm0.809,0.135v0.607H108.2V12.559h0.5a0.92,0.92,0,0,1,.24.029,0.537,0.537,0,0,1,.184.085,0.376,0.376,0,0,1,.116.144,0.475,0.475,0,0,1,.041.2,0.334,0.334,0,0,1-.059.2,0.452,0.452,0,0,1-.172.141,0.35,0.35,0,0,1,.1.063,0.3,0.3,0,0,1,.069.085,0.359,0.359,0,0,1,.038.1,0.574,0.574,0,0,1,.012.119v0.1a1.269,1.269,0,0,0,.006.127,0.338,0.338,0,0,0,.024.1v0.029H109.04a0.309,0.309,0,0,1-.015-0.059c0-.024-0.006-0.049-0.008-0.074s0-.049,0-0.072V13.73a0.266,0.266,0,0,0-.06-0.191,0.279,0.279,0,0,0-.2-0.062h-0.294Zm0-.23h0.281a0.473,0.473,0,0,0,.111-0.016,0.327,0.327,0,0,0,.092-0.041A0.213,0.213,0,0,0,109,13.122a0.191,0.191,0,0,0,.023-0.094,0.309,0.309,0,0,0-.017-0.112,0.162,0.162,0,0,0-.055-0.075,0.246,0.246,0,0,0-.1-0.041,0.8,0.8,0,0,0-.154-0.013h-0.244v0.46ZM33.232,33.39a2.917,2.917,0,0,1-.91,1.93,2.953,2.953,0,0,1-2.035.68,2.72,2.72,0,0,1-2.206-1,4.07,4.07,0,0,1-.83-2.68V31.56a4.547,4.547,0,0,1,.387-1.933,2.92,2.92,0,0,1,1.1-1.281,3.018,3.018,0,0,1,1.643-.447,2.783,2.783,0,0,1,1.985.7,2.955,2.955,0,0,1,.87,1.941H32.2a2.281,2.281,0,0,0-.579-1.369,1.735,1.735,0,0,0-1.246-.424,1.823,1.823,0,0,0-1.539.737,3.42,3.42,0,0,0-.558,2.1v0.764a3.517,3.517,0,0,0,.528,2.043,1.7,1.7,0,0,0,1.478.759,1.952,1.952,0,0,0,1.31-.393A2.192,2.192,0,0,0,32.2,33.39h1.03Zm0.654-.482a3.5,3.5,0,0,1,.333-1.548,2.449,2.449,0,0,1,2.286-1.435,2.418,2.418,0,0,1,1.907.828,3.218,3.218,0,0,1,.728,2.2v0.07a3.535,3.535,0,0,1-.323,1.535,2.476,2.476,0,0,1-.923,1.059A2.527,2.527,0,0,1,36.516,36a2.412,2.412,0,0,1-1.9-.828,3.2,3.2,0,0,1-.728-2.193v-0.07Zm0.992,0.119a2.532,2.532,0,0,0,.445,1.565,1.5,1.5,0,0,0,2.387-.008,2.771,2.771,0,0,0,.443-1.676,2.528,2.528,0,0,0-.451-1.562,1.426,1.426,0,0,0-1.2-.6,1.41,1.41,0,0,0-1.179.59A2.751,2.751,0,0,0,34.878,33.027Zm6.1-2.994,0.027,0.65a2.118,2.118,0,0,1,1.713-.758,1.646,1.646,0,0,1,1.648.942,2.138,2.138,0,0,1,1.841-.942,1.775,1.775,0,0,1,1.931,2.041v3.926H47.152V32.026a1.359,1.359,0,0,0-.283-0.939,1.234,1.234,0,0,0-.95-0.311,1.3,1.3,0,0,0-.912.333,1.359,1.359,0,0,0-.422.9v3.888H43.593V32.053a1.11,1.11,0,0,0-1.232-1.278,1.319,1.319,0,0,0-1.328.839v4.278H40.046V30.033h0.934Zm9.249,0,0.027,0.65a2.118,2.118,0,0,1,1.713-.758,1.647,1.647,0,0,1,1.648.942,2.138,2.138,0,0,1,1.841-.942,1.775,1.775,0,0,1,1.931,2.041v3.926H56.4V32.026a1.359,1.359,0,0,0-.283-0.939,1.234,1.234,0,0,0-.95-0.311,1.3,1.3,0,0,0-.912.333,1.359,1.359,0,0,0-.421.9v3.888H52.842V32.053a1.11,1.11,0,0,0-1.232-1.278,1.319,1.319,0,0,0-1.328.839v4.278H49.294V30.033h0.934Zm11.884,5.859a2.128,2.128,0,0,1-.139-0.617A2.187,2.187,0,0,1,60.33,36a2.018,2.018,0,0,1-1.4-.49,1.6,1.6,0,0,1-.547-1.243,1.665,1.665,0,0,1,.686-1.421A3.2,3.2,0,0,1,61,32.34h0.96v-0.46a1.135,1.135,0,0,0-.309-0.837,1.232,1.232,0,0,0-.912-0.311A1.424,1.424,0,0,0,59.85,31a0.8,0.8,0,0,0-.358.655H58.5a1.4,1.4,0,0,1,.307-0.847,2.1,2.1,0,0,1,.832-0.647,2.767,2.767,0,0,1,1.155-.238,2.26,2.26,0,0,1,1.563.506,1.84,1.84,0,0,1,.587,1.394v2.7a3.341,3.341,0,0,0,.2,1.283v0.087H62.112Zm-1.638-.763a1.715,1.715,0,0,0,.88-0.244,1.466,1.466,0,0,0,.6-0.634v-1.2H61.184q-1.814,0-1.814,1.077a0.918,0.918,0,0,0,.309.736A1.178,1.178,0,0,0,60.474,35.128Zm4.623-5.1,0.032,0.736a2.092,2.092,0,0,1,1.729-.845q1.83,0,1.846,2.1v3.871H67.717V32.015a1.362,1.362,0,0,0-.285-0.937,1.134,1.134,0,0,0-.872-0.3,1.41,1.41,0,0,0-.843.26,1.76,1.76,0,0,0-.566.682v4.175H64.163V30.033H65.1Zm4.527,2.88a3.468,3.468,0,0,1,.629-2.168,2.122,2.122,0,0,1,3.254-.116V27.575H74.5v8.317H73.588l-0.048-.628A2,2,0,0,1,71.892,36a1.962,1.962,0,0,1-1.635-.834,3.506,3.506,0,0,1-.632-2.177V32.914Zm0.987,0.114a2.627,2.627,0,0,0,.406,1.559,1.3,1.3,0,0,0,1.12.563,1.438,1.438,0,0,0,1.371-.855V31.6a1.448,1.448,0,0,0-1.36-.828,1.311,1.311,0,0,0-1.131.569A2.894,2.894,0,0,0,70.611,33.027ZM83.944,33.39a2.918,2.918,0,0,1-.91,1.93A2.953,2.953,0,0,1,81,36a2.72,2.72,0,0,1-2.206-1,4.07,4.07,0,0,1-.83-2.68V31.56a4.547,4.547,0,0,1,.387-1.933,2.919,2.919,0,0,1,1.1-1.281A3.018,3.018,0,0,1,81.09,27.9a2.783,2.783,0,0,1,1.985.7,2.955,2.955,0,0,1,.87,1.941h-1.03a2.281,2.281,0,0,0-.579-1.369,1.736,1.736,0,0,0-1.246-.424,1.822,1.822,0,0,0-1.539.737,3.42,3.42,0,0,0-.558,2.1v0.764a3.516,3.516,0,0,0,.528,2.043A1.7,1.7,0,0,0,81,35.15a1.952,1.952,0,0,0,1.31-.393,2.192,2.192,0,0,0,.605-1.367h1.03ZM87.255,36a2.5,2.5,0,0,1-1.91-.782,2.93,2.93,0,0,1-.736-2.093V32.941a3.561,3.561,0,0,1,.328-1.557,2.586,2.586,0,0,1,.918-1.072,2.283,2.283,0,0,1,1.278-.387,2.148,2.148,0,0,1,1.75.753,3.293,3.293,0,0,1,.624,2.155v0.417H85.6a2.1,2.1,0,0,0,.5,1.4,1.557,1.557,0,0,0,1.214.533,1.7,1.7,0,0,0,.886-0.217,2.237,2.237,0,0,0,.635-0.574l0.6,0.477A2.414,2.414,0,0,1,87.255,36Zm-0.123-5.252a1.307,1.307,0,0,0-1,.441,2.161,2.161,0,0,0-.5,1.237h2.892V32.35a1.926,1.926,0,0,0-.406-1.183A1.232,1.232,0,0,0,87.132,30.748Zm4.122-.715,0.032,0.736a2.092,2.092,0,0,1,1.728-.845q1.83,0,1.846,2.1v3.871H93.873V32.015a1.362,1.362,0,0,0-.285-0.937,1.134,1.134,0,0,0-.872-0.3,1.41,1.41,0,0,0-.843.26,1.76,1.76,0,0,0-.566.682v4.175H90.32V30.033h0.934Zm6.106-1.419v1.419h1.078v0.774H97.36v3.638a0.821,0.821,0,0,0,.144.529,0.6,0.6,0,0,0,.491.176,2.359,2.359,0,0,0,.469-0.065v0.807a2.837,2.837,0,0,1-.758.108,1.22,1.22,0,0,1-1-.406,1.762,1.762,0,0,1-.336-1.153V30.807H95.322V30.033h1.051V28.614H97.36Zm4.3,7.385a2.5,2.5,0,0,1-1.909-.782,2.93,2.93,0,0,1-.736-2.093V32.941a3.562,3.562,0,0,1,.328-1.557,2.586,2.586,0,0,1,.918-1.072,2.283,2.283,0,0,1,1.278-.387,2.15,2.15,0,0,1,1.75.753,3.293,3.293,0,0,1,.624,2.155v0.417H100a2.1,2.1,0,0,0,.5,1.4,1.557,1.557,0,0,0,1.214.533,1.7,1.7,0,0,0,.885-0.217,2.231,2.231,0,0,0,.635-0.574l0.6,0.477A2.414,2.414,0,0,1,101.657,36Zm-0.122-5.252a1.306,1.306,0,0,0-1,.441,2.157,2.157,0,0,0-.5,1.237h2.892V32.35a1.928,1.928,0,0,0-.406-1.183A1.231,1.231,0,0,0,101.535,30.748Zm5.978,0.184a2.919,2.919,0,0,0-.486-0.038,1.3,1.3,0,0,0-1.317.839v4.158h-0.987V30.033h0.96L105.7,30.71a1.532,1.532,0,0,1,1.376-.785,1,1,0,0,1,.438.076v0.931Z" transform="translate(-27 -12)"/>
</svg>
