
<svg width="12px" height="14px" viewBox="280 5 12 14" version="1.1" xmlns="http://www.w3.org/2000/svg" xmlns:xlink="http://www.w3.org/1999/xlink">
    <path d="M291,8 L290,19 L282,19 L281,8 L280,8 L280,7 L284,7 L284,5 L288,5 L288,7 L292,7 L292,8 L291,8 L291,8 Z M287,6 L285,6 L285,7 L287,7 L287,6 L287,6 Z M282,8 L283,18 L289,18 L290,8 L282,8 L282,8 Z M287,9 L288,9 L288,17 L287,17 L287,9 L287,9 Z M284,9 L285,9 L285,17 L284,17 L284,9 L284,9 Z" id="trash" stroke="none" fill-rule="evenodd"></path>
</svg>