<svg xmlns="http://www.w3.org/2000/svg" width="12" height="11" viewBox="0 0 12 11">
  <path id="Polygon_3_copy" data-name="Polygon 3 copy" class="cls-1" d="M-132.448.5l5.57,10.019h-11.14Z"/>
  <path id="Shape_3_copy_2" data-name="Shape 3 copy 2" class="cls-2" d="M-132.535,4.421V7.643"/>
  <path id="Shape_3_copy_2-2" data-name="Shape 3 copy 2" class="cls-2" d="M-132.535,9.421v0.847"/>
  <path id="Shape_3_copy_5" data-name="Shape 3 copy 5" class="cls-3" d="M-106.484,10.836l-6.49-7.333,2.949-3h7.081l2.918,3Zm-0.005,0,3.088-7.325-9.568,0"/>
  <path id="Shape_4_copy_2" data-name="Shape 4 copy 2" class="cls-1" d="M-80.5,7.565L-86.495.5H-74.5Zm0,0v2.953m2.992,0h-5.97"/>
  <path id="Shape_3_copy_5-2" data-name="Shape 3 copy 5" class="cls-2" d="M-77.829.5l-2.577,2.978"/>
  <path id="Shape_1_copy_16" data-name="Shape 1 copy 16" class="cls-4" d="M-57.707,2.707l1.414-1.414,6,6-1.414,1.414Zm7.414,0-1.414-1.414-6,6,1.414,1.414Z"/>
  <path id="Shape_1_copy_19" data-name="Shape 1 copy 19" class="cls-4" d="M-31.059,3.308l-3.488,3.7h0l-3.488-3.7L-36.8,2l2.255,2.391L-32.293,2Z"/>
  <path id="Shape_1_copy_20" data-name="Shape 1 copy 20" class="cls-4" d="M-14.059,5.692l-3.488-3.7h0l-3.488,3.7L-19.8,7l2.255-2.391L-15.293,7Z"/>
  <path id="Shape_1_copy_17" data-name="Shape 1 copy 17" class="cls-5" d="M7.286,8.979H4.714c-0.633,0-.734-0.426-1.286-0.646L0,11.063V4.583H0V4.167L0.038,4.221A4.647,4.647,0,0,1,4.714,0H7.286A4.65,4.65,0,0,1,12,4.583h0A4.5,4.5,0,0,1,7.286,8.979Z"/>
  <path id="Shape_1_copy_21" data-name="Shape 1 copy 21" class="cls-6" d="M32.286,8.979H29.714c-0.633,0-.734-0.426-1.286-0.646L25,11.063V4.583h0V4.167l0.038,0.055A4.647,4.647,0,0,1,29.714,0h2.572A4.65,4.65,0,0,1,37,4.583h0A4.5,4.5,0,0,1,32.286,8.979Z"/>
  <circle id="Ellipse_2_copy_5" data-name="Ellipse 2 copy 5" class="cls-7" cx="59" cy="6" r="9"/>
  <path id="Polygon_3" data-name="Polygon 3" class="cls-8" d="M61.828,1.757l1.414,1.414L61.828,4.586,60.414,3.172ZM55.5,9.554l0.214-1.7,3.994-3.968L61.106,5.28l-3.99,3.972Z"/>
</svg>
