<svg id="group" xmlns="http://www.w3.org/2000/svg" width="37" height="39.5" viewBox="0 0 37 39.5">
  <defs>
    <style>
      .cls-12, .cls-32 {
        fill: #30a46f;
      }

      .cls-12 {
        fill-opacity: 0;
      }

      .cls-12, .cls-22 {
        stroke: #30a46f;
        stroke-linejoin: round;
        stroke-width: 1px;
      }

      .cls-22, .cls-42 {
        fill: #fff;
        fill-rule: evenodd;
      }
    </style>
  </defs>
  <circle class="cls-12" cx="18.5" cy="18.5" r="18"/>
  <path class="cls-22" d="M594,75a2.14,2.14,0,1,1-2.059,2.139A2.1,2.1,0,0,1,594,75Zm1.538,4.889a12.366,12.366,0,0,1,2.454,4.163,4.135,4.135,0,0,1-.581,1.94h-6.823a4.142,4.142,0,0,1-.58-1.944,12.3,12.3,0,0,1,2.453-4.158h3.077Z" transform="translate(-569.5 -63.5)"/>
  <path class="cls-22" d="M588,75a2.14,2.14,0,1,1-2.059,2.139A2.1,2.1,0,0,1,588,75Zm1.538,4.889a12.366,12.366,0,0,1,2.454,4.163,4.135,4.135,0,0,1-.581,1.94h-6.823a4.142,4.142,0,0,1-.58-1.944,12.3,12.3,0,0,1,2.453-4.158h3.077Z" transform="translate(-569.5 -63.5)"/>
  <path class="cls-22" d="M582,75a2.14,2.14,0,1,1-2.059,2.139A2.1,2.1,0,0,1,582,75Zm1.538,4.889a12.366,12.366,0,0,1,2.454,4.163,4.135,4.135,0,0,1-.581,1.94h-6.823a4.142,4.142,0,0,1-.58-1.944,12.3,12.3,0,0,1,2.453-4.158h3.077Z" transform="translate(-569.5 -63.5)"/>
  <circle class="cls-32" cx="19" cy="33" r="6.5"/>
  <path class="cls-42" d="M586,97V96h5v1h-5Zm2-3h1v5h-1V94Z" transform="translate(-569.5 -63.5)"/>
</svg>
