<svg xmlns="http://www.w3.org/2000/svg" width="183" height="53" viewBox="0 0 183 53">
  <path d="M712.874,117.986l4.293-22.8H710l0.865-4.669h21.74l-0.867,4.669h-7.169l-4.292,22.8h-7.4Zm21.809-27.473h11.026c5.829,0,7.76,4.082,7.76,6.987,0,4.788-3.269,7.023-5.83,8.281l4.213,11.7-7.914.9-2.876-10.793h-2.127l-1.968,10.4h-7.443Zm5.041,12.4h2.244a4.415,4.415,0,0,0,4.1-4.474,3.227,3.227,0,0,0-2.913-3.258h-1.932Zm33.549-12.4,4.292,27.473H770.2l-0.708-6.555h-7.327l-3.583,6.555h-6.26L767.6,90.513h5.671ZM769.1,107.076c-0.277-2.711-.55-5.456-0.631-9.107H768.39c-1.458,3.651-2.757,6.4-4.1,9.107H769.1Zm33.749,10.91h-5.474c-2.755-5.3-6.812-13.109-8.032-16.8h-0.079l-3.071,16.8h-6.381l5.159-27.473h5.907c2.638,5.1,6.143,11.93,7.6,16.169h0.077l3.073-16.169h6.379Zm21.7-22.449a7.362,7.362,0,0,0-3.309-.826,2.916,2.916,0,0,0-2.993,2.631c0,1.294.827,2.787,2.993,5.572,2.008,2.552,3.072,5.062,3.072,7.066,0,5.336-4.41,8.477-10,8.477-3.071,0-6.616-1.1-8.113-2.668l2.6-3.691a8.245,8.245,0,0,0,4.411,1.492,3.613,3.613,0,0,0,3.623-3.532c0-1.806-1.417-3.453-3.308-6.045-1.969-2.746-2.755-4.159-2.755-6.278,0-4.633,4.331-7.693,9.686-7.693a10.708,10.708,0,0,1,6.536,1.963Zm20.8-.355h-7.6l-1.46,7.772h7.409l-0.827,4.67h-7.449l-1.968,10.362h-7.4l5.16-27.473h15.01Zm4.017-4.669h7.4l-4.291,22.8h9.136l-0.867,4.672H844.2Zm13.471,16.092c0-7.771,5.158-16.563,14.65-16.563,7.208,0,10.475,6.751,10.475,12.323,0,9.066-6.773,16.092-14.1,16.092C866.14,118.457,862.832,112.414,862.832,106.605Zm17.485-5.261c0-1.728-.593-5.573-3.78-5.573-2.286,0-6.067,2.433-6.067,10.99,0,1.649.435,5.966,4.1,5.966C877.678,112.726,880.317,107.938,880.317,101.344Zm7.035-8.381a3.108,3.108,0,0,1,.1-0.8,3.06,3.06,0,0,1,.285-0.712,2.856,2.856,0,0,1,.441-0.6,2.781,2.781,0,0,1,1.248-.748,2.777,2.777,0,0,1,1.5,0,2.761,2.761,0,0,1,.673.292,2.847,2.847,0,0,1,1.013,1.053,3.1,3.1,0,0,1,.285.712,3.153,3.153,0,0,1-.285,2.32,2.8,2.8,0,0,1-.442.6,2.914,2.914,0,0,1-.571.46,2.667,2.667,0,0,1-.673.3,2.737,2.737,0,0,1-2.175-.3,2.926,2.926,0,0,1-.573-0.46,2.831,2.831,0,0,1-.441-0.6A3.122,3.122,0,0,1,887.352,92.963Zm0.458,0a2.572,2.572,0,0,0,.187.988,2.533,2.533,0,0,0,.508.793,2.331,2.331,0,0,0,.752.529,2.3,2.3,0,0,0,1.841,0,2.375,2.375,0,0,0,.752-0.529,2.479,2.479,0,0,0,.507-0.793,2.713,2.713,0,0,0,0-1.969,2.462,2.462,0,0,0-.507-0.789,2.365,2.365,0,0,0-.752-0.525,2.32,2.32,0,0,0-1.841,0,2.321,2.321,0,0,0-.752.525,2.516,2.516,0,0,0-.508.789A2.547,2.547,0,0,0,887.81,92.963Zm1.783,0.3V94.6h-0.561V91.234h1.1a2.061,2.061,0,0,1,.532.063,1.181,1.181,0,0,1,.4.188,0.82,0.82,0,0,1,.256.317,1.042,1.042,0,0,1,.09.446,0.738,0.738,0,0,1-.129.434,1.012,1.012,0,0,1-.38.311,0.787,0.787,0,0,1,.228.139,0.708,0.708,0,0,1,.152.188,0.827,0.827,0,0,1,.083.23,1.316,1.316,0,0,1,.026.264v0.218a2.746,2.746,0,0,0,.014.282,0.734,0.734,0,0,0,.054.222V94.6h-0.577a0.588,0.588,0,0,1-.032-0.131q-0.012-.079-0.018-0.163c0-.056-0.006-0.108-0.006-0.159V93.82a0.589,0.589,0,0,0-.133-0.422,0.616,0.616,0,0,0-.452-0.137h-0.649Zm0-.508h0.621a1.031,1.031,0,0,0,.243-0.036,0.682,0.682,0,0,0,.2-0.091,0.45,0.45,0,0,0,.139-0.149,0.4,0.4,0,0,0,.052-0.208,0.717,0.717,0,0,0-.038-0.248,0.364,0.364,0,0,0-.121-0.165,0.544,0.544,0,0,0-.221-0.091,1.761,1.761,0,0,0-.341-0.028h-0.537v1.015ZM723.741,137.236A6,6,0,0,1,717.248,143a5.994,5.994,0,0,1-4.864-2.212,9,9,0,0,1-1.829-5.919V133.2a10.056,10.056,0,0,1,.853-4.269,6.446,6.446,0,0,1,2.417-2.828,6.64,6.64,0,0,1,3.623-.986,6.128,6.128,0,0,1,4.375,1.548,6.533,6.533,0,0,1,1.918,4.287H721.47a5.04,5.04,0,0,0-1.276-3.023,3.824,3.824,0,0,0-2.746-.935,4.014,4.014,0,0,0-3.394,1.628,7.557,7.557,0,0,0-1.229,4.631v1.687a7.78,7.78,0,0,0,1.164,4.512,3.745,3.745,0,0,0,3.259,1.675,4.3,4.3,0,0,0,2.887-.867,4.835,4.835,0,0,0,1.335-3.019h2.271Zm1.441-1.064a7.74,7.74,0,0,1,.736-3.42,5.4,5.4,0,0,1,5.04-3.168,5.326,5.326,0,0,1,4.205,1.829,7.116,7.116,0,0,1,1.606,4.867v0.155a7.82,7.82,0,0,1-.712,3.39,5.473,5.473,0,0,1-2.035,2.338,5.567,5.567,0,0,1-3.041.837,5.312,5.312,0,0,1-4.193-1.83,7.072,7.072,0,0,1-1.606-4.842v-0.156Zm2.188,0.263a5.6,5.6,0,0,0,.982,3.456,3.3,3.3,0,0,0,5.264-.018,6.128,6.128,0,0,0,.976-3.7,5.589,5.589,0,0,0-.994-3.45,3.142,3.142,0,0,0-2.64-1.321,3.11,3.11,0,0,0-2.6,1.3A6.087,6.087,0,0,0,727.37,136.435Zm13.452-6.612,0.058,1.435a4.668,4.668,0,0,1,3.776-1.674,3.63,3.63,0,0,1,3.635,2.08,4.71,4.71,0,0,1,4.058-2.08q4.188,0,4.258,4.507v8.669h-2.176v-8.537a3.008,3.008,0,0,0-.623-2.075,2.721,2.721,0,0,0-2.094-.687,2.861,2.861,0,0,0-2.012.735,3,3,0,0,0-.929,1.979v8.585h-2.188v-8.477q0-2.821-2.717-2.822a2.909,2.909,0,0,0-2.929,1.853v9.446h-2.176V129.823h2.059Zm20.391,0,0.059,1.435a4.667,4.667,0,0,1,3.776-1.674,3.628,3.628,0,0,1,3.634,2.08,4.71,4.71,0,0,1,4.058-2.08q4.188,0,4.259,4.507v8.669h-2.177v-8.537a3,3,0,0,0-.623-2.075,2.721,2.721,0,0,0-2.094-.687,2.858,2.858,0,0,0-2.011.735,3,3,0,0,0-.929,1.979v8.585h-2.188v-8.477q0-2.821-2.717-2.822a2.908,2.908,0,0,0-2.929,1.853v9.446h-2.177V129.823h2.059Zm26.2,12.937a4.74,4.74,0,0,1-.306-1.363,4.815,4.815,0,0,1-3.623,1.6,4.444,4.444,0,0,1-3.087-1.083,3.525,3.525,0,0,1-1.206-2.744,3.679,3.679,0,0,1,1.512-3.139,7.038,7.038,0,0,1,4.252-1.118h2.117V133.9a2.509,2.509,0,0,0-.682-1.847,2.713,2.713,0,0,0-2.012-.688,3.139,3.139,0,0,0-1.952.6,1.768,1.768,0,0,0-.788,1.447h-2.188a3.082,3.082,0,0,1,.676-1.871,4.631,4.631,0,0,1,1.835-1.429,6.081,6.081,0,0,1,2.547-.526,4.974,4.974,0,0,1,3.446,1.118,4.062,4.062,0,0,1,1.294,3.079v5.954a7.386,7.386,0,0,0,.447,2.834v0.191h-2.282Zm-3.611-1.686a3.776,3.776,0,0,0,1.941-.538,3.232,3.232,0,0,0,1.329-1.4v-2.655h-1.706q-4,0-4,2.379a2.033,2.033,0,0,0,.682,1.627A2.6,2.6,0,0,0,783.8,141.074ZM794,129.823l0.071,1.626a4.608,4.608,0,0,1,3.811-1.865q4.033,0,4.07,4.627v8.549h-2.176V134.2a3.007,3.007,0,0,0-.63-2.068,2.493,2.493,0,0,0-1.923-.67,3.1,3.1,0,0,0-1.858.574,3.875,3.875,0,0,0-1.247,1.506v9.219h-2.176V129.823H794Zm9.982,6.361a7.664,7.664,0,0,1,1.388-4.789,4.674,4.674,0,0,1,7.175-.257v-6.744h2.176V142.76h-2l-0.106-1.387A4.4,4.4,0,0,1,808.978,143a4.322,4.322,0,0,1-3.6-1.842,7.749,7.749,0,0,1-1.394-4.807v-0.167Zm2.176,0.251a5.81,5.81,0,0,0,.894,3.444,2.873,2.873,0,0,0,2.47,1.243,3.169,3.169,0,0,0,3.023-1.889V133.29a3.194,3.194,0,0,0-3-1.829,2.886,2.886,0,0,0-2.493,1.255A6.4,6.4,0,0,0,806.155,136.435Zm29.4,0.8A6,6,0,0,1,829.058,143a6,6,0,0,1-4.864-2.212,9,9,0,0,1-1.829-5.919V133.2a10.056,10.056,0,0,1,.853-4.269,6.446,6.446,0,0,1,2.417-2.828,6.645,6.645,0,0,1,3.623-.986,6.13,6.13,0,0,1,4.376,1.548,6.537,6.537,0,0,1,1.917,4.287h-2.27A5.041,5.041,0,0,0,832,127.924a3.823,3.823,0,0,0-2.746-.935,4.016,4.016,0,0,0-3.394,1.628,7.564,7.564,0,0,0-1.229,4.631v1.687a7.772,7.772,0,0,0,1.165,4.512,3.743,3.743,0,0,0,3.258,1.675,4.3,4.3,0,0,0,2.888-.867,4.846,4.846,0,0,0,1.335-3.019h2.27Zm7.3,5.764a5.516,5.516,0,0,1-4.211-1.728,6.476,6.476,0,0,1-1.623-4.622v-0.406a7.88,7.88,0,0,1,.723-3.438,5.708,5.708,0,0,1,2.024-2.367,5.024,5.024,0,0,1,2.817-.855,4.731,4.731,0,0,1,3.858,1.662,7.275,7.275,0,0,1,1.376,4.759v0.92h-8.622a4.64,4.64,0,0,0,1.1,3.091,3.429,3.429,0,0,0,2.676,1.178,3.742,3.742,0,0,0,1.953-.478,4.927,4.927,0,0,0,1.4-1.268l1.33,1.053A5.322,5.322,0,0,1,842.85,143Zm-0.27-11.6a2.878,2.878,0,0,0-2.211.975,4.773,4.773,0,0,0-1.106,2.732h6.375V134.94a4.258,4.258,0,0,0-.894-2.612A2.71,2.71,0,0,0,842.58,131.4Zm9.087-1.578,0.071,1.626a4.608,4.608,0,0,1,3.811-1.865q4.035,0,4.07,4.627v8.549h-2.176V134.2a3.007,3.007,0,0,0-.63-2.068,2.493,2.493,0,0,0-1.923-.67,3.1,3.1,0,0,0-1.858.574,3.875,3.875,0,0,0-1.247,1.506v9.219h-2.176V129.823h2.058Zm13.463-3.133v3.133h2.377v1.71H865.13v8.033a1.813,1.813,0,0,0,.318,1.167,1.322,1.322,0,0,0,1.082.389,5.226,5.226,0,0,0,1.035-.143v1.783a6.263,6.263,0,0,1-1.67.238,2.69,2.69,0,0,1-2.2-.9,3.9,3.9,0,0,1-.741-2.547v-8.023h-2.317v-1.71h2.317V126.69h2.176ZM874.606,143a5.515,5.515,0,0,1-4.211-1.728,6.476,6.476,0,0,1-1.623-4.622v-0.406a7.88,7.88,0,0,1,.723-3.438,5.713,5.713,0,0,1,2.023-2.367,5.03,5.03,0,0,1,2.818-.855,4.732,4.732,0,0,1,3.858,1.662,7.281,7.281,0,0,1,1.376,4.759v0.92h-8.622a4.64,4.64,0,0,0,1.1,3.091,3.428,3.428,0,0,0,2.676,1.178,3.738,3.738,0,0,0,1.952-.478,4.931,4.931,0,0,0,1.4-1.268l1.329,1.053A5.319,5.319,0,0,1,874.606,143Zm-0.27-11.6a2.881,2.881,0,0,0-2.212.975,4.78,4.78,0,0,0-1.106,2.732h6.376V134.94a4.258,4.258,0,0,0-.894-2.612A2.713,2.713,0,0,0,874.336,131.4Zm13.18,0.407a6.389,6.389,0,0,0-1.07-.084,2.865,2.865,0,0,0-2.9,1.853v9.183h-2.176V129.823h2.117l0.035,1.494a3.377,3.377,0,0,1,3.035-1.733,2.183,2.183,0,0,1,.964.167v2.057Z" transform="translate(-710 -90)"/>
</svg>
