<svg xmlns="http://www.w3.org/2000/svg" width="9" height="9" viewBox="0 0 9 9">
  <path id="Polygon_3_copy" data-name="Polygon 3 copy" class="cls-1" d="M-213.448-.5l5.57,10.019h-11.14Z"/>
  <path id="Shape_3_copy_2" data-name="Shape 3 copy 2" class="cls-2" d="M-213.535,3.421V6.643"/>
  <path id="Shape_3_copy_2-2" data-name="Shape 3 copy 2" class="cls-2" d="M-213.535,8.421V9.268"/>
  <path id="Shape_3_copy_5" data-name="Shape 3 copy 5" class="cls-3" d="M-187.484,9.836l-6.49-7.333,2.949-3h7.081l2.918,3Zm0,0,3.088-7.324-9.568,0"/>
  <path id="Shape_4_copy_2" data-name="Shape 4 copy 2" class="cls-1" d="M-161.5,6.565L-167.495-.5H-155.5Zm0,0V9.514m2.992,0h-5.97"/>
  <path id="Shape_3_copy_5-2" data-name="Shape 3 copy 5" class="cls-2" d="M-158.829-.5L-161.4,2.481"/>
  <path id="Shape_1_copy_16" data-name="Shape 1 copy 16" class="cls-4" d="M-138.707,1.707l1.414-1.414,6,6-1.414,1.414Zm7.414,0L-132.707.293l-6,6,1.414,1.414Z"/>
  <path id="Shape_1_copy_19" data-name="Shape 1 copy 19" class="cls-4" d="M-112.059,2.308l-3.489,3.7h0l-3.488-3.7L-117.8,1l2.255,2.391L-113.293,1Z"/>
  <path id="Shape_1_copy_20" data-name="Shape 1 copy 20" class="cls-4" d="M-95.059,4.692l-3.488-3.7h0l-3.488,3.7L-100.8,6l2.255-2.391L-96.293,6Z"/>
  <path id="Shape_1_copy_17" data-name="Shape 1 copy 17" class="cls-5" d="M-73.714,7.979h-2.572c-0.633,0-.734-0.426-1.286-0.646L-81,10.063V3.583h0V3.167l0.037,0.055A4.647,4.647,0,0,1-76.286-1h2.572A4.65,4.65,0,0,1-69,3.583h0A4.5,4.5,0,0,1-73.714,7.979Z"/>
  <path id="Shape_1_copy_21" data-name="Shape 1 copy 21" class="cls-6" d="M-48.714,7.979h-2.572c-0.633,0-.734-0.426-1.286-0.646L-56,10.063V3.583h0V3.167l0.038,0.055A4.647,4.647,0,0,1-51.286-1h2.572A4.65,4.65,0,0,1-44,3.583h0A4.5,4.5,0,0,1-48.714,7.979Z"/>
  <circle id="Ellipse_2_copy_5" data-name="Ellipse 2 copy 5" class="cls-7" cx="-22" cy="5" r="9"/>
  <path id="Polygon_3" data-name="Polygon 3" class="cls-8" d="M-19.172.757l1.414,1.414-1.414,1.414-1.414-1.414Zm-6.325,7.8,0.214-1.7,3.994-3.968,1.394,1.394-3.99,3.972Z"/>
  <path id="Pen" class="cls-8" d="M6.828,0.757L8.243,2.172,6.828,3.586,5.414,2.172ZM0.5,8.554l0.214-1.7L4.712,2.885,6.106,4.28,2.115,8.251Z"/>
</svg>
